<svg width="505" height="134" viewBox="0 0 505 134" fill="none" xmlns="http://www.w3.org/2000/svg">
<g filter="url(#filter0_d_462_219)">
<path d="M53 92.6257L86.9472 4.1228H117.871L151.956 92.6257H121.169L114.297 75.0351H90.5206L83.7862 92.6257H53ZM94.094 54.4211H110.724L102.34 32.9825L94.094 54.4211Z" fill="#376996"/>
<path d="M203.875 94C199.752 94 196.178 93.4961 193.155 92.4883C190.131 91.3889 187.337 89.8772 184.771 87.9532L183.397 92.6257H157.833V0H187.382V29.2719C189.307 28.2641 191.689 27.4854 194.529 26.9357C197.37 26.386 200.118 26.1111 202.775 26.1111C212.671 26.1111 220.413 28.6764 226.003 33.807C231.592 38.9376 234.386 47.5039 234.386 59.5058C234.386 71.1413 231.592 79.7992 226.003 85.4795C220.505 91.1599 213.129 94 203.875 94ZM195.354 72.8363C198.286 72.8363 200.485 71.8743 201.951 69.9503C203.508 68.0263 204.287 64.6823 204.287 59.9181C204.287 55.154 203.508 51.9016 201.951 50.1608C200.485 48.3285 198.286 47.4123 195.354 47.4123C192.147 47.4123 189.49 48.3285 187.382 50.1608V69.8129C188.482 70.729 189.673 71.462 190.956 72.0117C192.239 72.5614 193.705 72.8363 195.354 72.8363Z" fill="#376996"/>
<path d="M277.018 94C263.641 94 253.699 91.1599 247.194 85.4795C240.78 79.7076 237.573 71.2329 237.573 60.0556C237.573 48.8782 240.826 40.4493 247.331 34.769C253.837 28.9971 263.732 26.1111 277.018 26.1111C290.395 26.1111 300.337 28.9971 306.842 34.769C313.439 40.4493 316.738 48.8782 316.738 60.0556C316.738 71.2329 313.485 79.7076 306.979 85.4795C300.474 91.1599 290.487 94 277.018 94ZM277.018 72.6988C280.316 72.6988 282.744 71.7368 284.302 69.8129C285.86 67.8889 286.639 64.6365 286.639 60.0556C286.639 55.4747 285.86 52.2222 284.302 50.2982C282.744 48.3743 280.316 47.4123 277.018 47.4123C273.811 47.4123 271.429 48.3743 269.871 50.2982C268.405 52.2222 267.672 55.4747 267.672 60.0556C267.672 64.6365 268.405 67.8889 269.871 69.8129C271.429 71.7368 273.811 72.6988 277.018 72.6988Z" fill="#376996"/>
<path d="M346.041 94C338.528 94 332.618 91.847 328.311 87.5409C324.097 83.2349 321.989 76.9591 321.989 68.7134V27.4854H351.538V65.8275C351.538 70.1335 353.737 72.2866 358.135 72.2866C359.693 72.2866 361.251 71.9201 362.808 71.1871C364.458 70.4542 365.74 69.5838 366.657 68.576V27.4854H396.206V92.6257H368.443L367.756 88.3655C365.282 90.0146 362.167 91.3889 358.41 92.4883C354.745 93.4961 350.622 94 346.041 94Z" fill="#376996"/>
<path d="M434.171 94C424.825 94 418.091 91.7096 413.968 87.1287C409.844 82.4561 407.783 76.1803 407.783 68.3012V49.0614H399.674V27.4854H407.783V14.4298L437.332 7.97076V27.4854H451.488L450.664 49.0614H437.332V66.5146C437.332 70.9123 439.806 73.1111 444.754 73.1111C447.502 73.1111 450.251 72.653 453 71.7368V90.7018C450.343 91.8012 447.502 92.6257 444.479 93.1754C441.455 93.7252 438.019 94 434.171 94Z" fill="#376996"/>
</g>
<g filter="url(#filter1_d_462_219)">
<path d="M4.56624 111L19 125.434L33.4338 111L19 96.5662L4.56624 111ZM500.434 111L486 96.5662L471.566 111L486 125.434L500.434 111ZM19 113.5H486V108.5H19V113.5Z" fill="#1D3461"/>
</g>
<defs>
<filter id="filter0_d_462_219" x="49" y="0" width="408" height="102" filterUnits="userSpaceOnUse" color-interpolation-filters="sRGB">
<feFlood flood-opacity="0" result="BackgroundImageFix"/>
<feColorMatrix in="SourceAlpha" type="matrix" values="0 0 0 0 0 0 0 0 0 0 0 0 0 0 0 0 0 0 127 0" result="hardAlpha"/>
<feOffset dy="4"/>
<feGaussianBlur stdDeviation="2"/>
<feComposite in2="hardAlpha" operator="out"/>
<feColorMatrix type="matrix" values="0 0 0 0 0 0 0 0 0 0 0 0 0 0 0 0 0 0 0.25 0"/>
<feBlend mode="normal" in2="BackgroundImageFix" result="effect1_dropShadow_462_219"/>
<feBlend mode="normal" in="SourceGraphic" in2="effect1_dropShadow_462_219" result="shape"/>
</filter>
<filter id="filter1_d_462_219" x="0.566406" y="96.5664" width="503.867" height="36.8672" filterUnits="userSpaceOnUse" color-interpolation-filters="sRGB">
<feFlood flood-opacity="0" result="BackgroundImageFix"/>
<feColorMatrix in="SourceAlpha" type="matrix" values="0 0 0 0 0 0 0 0 0 0 0 0 0 0 0 0 0 0 127 0" result="hardAlpha"/>
<feOffset dy="4"/>
<feGaussianBlur stdDeviation="2"/>
<feComposite in2="hardAlpha" operator="out"/>
<feColorMatrix type="matrix" values="0 0 0 0 0 0 0 0 0 0 0 0 0 0 0 0 0 0 0.25 0"/>
<feBlend mode="normal" in2="BackgroundImageFix" result="effect1_dropShadow_462_219"/>
<feBlend mode="normal" in="SourceGraphic" in2="effect1_dropShadow_462_219" result="shape"/>
</filter>
</defs>
</svg>
